<svg xmlns="http://www.w3.org/2000/svg" xmlns:xlink="http://www.w3.org/1999/xlink" id="processonSvg1000" viewBox="156.0 55.0 366.0 572.0" width="366.0" height="572.0"><defs id="ProcessOnDefs1001"/><g id="ProcessOnG1002"><path id="ProcessOnPath1003" d="M156.0 55.0H522.0V627.0H156.0V55.0Z" fill="none"/><g id="ProcessOnG1004"><g id="ProcessOnG1005" transform="matrix(1.0,0.0,0.0,1.0,203.0,75.0)" opacity="1.0"><path id="ProcessOnPath1006" d="M0.0 0.0L33.0 0.0L33.0 67.0L0.0 67.0Z" stroke="#323232" stroke-width="2.0" stroke-dasharray="none" opacity="1.0" fill="#ff9933"/><g id="ProcessOnG1007" transform="matrix(1.0,0.0,0.0,1.0,10.0,25.375)"><text id="ProcessOnText1008" fill="#000000" font-weight="normal" font-style="normal" text-decoration="blink" font-family="微软雅黑" text-anchor="middle" font-size="13" x="6.5" y="13.325">0</text></g></g><g id="ProcessOnG1009" transform="matrix(1.0,0.0,0.0,1.0,258.0,75.0)" opacity="1.0"><path id="ProcessOnPath1010" d="M0.0 0.0L35.0 0.0L35.0 33.0L0.0 33.0Z" stroke="#323232" stroke-width="2.0" stroke-dasharray="none" opacity="1.0" fill="#ffffff"/><g id="ProcessOnG1011" transform="matrix(1.0,0.0,0.0,1.0,10.0,8.375)"><text id="ProcessOnText1012" fill="#000000" font-weight="normal" font-style="normal" text-decoration="blink" font-family="微软雅黑" text-anchor="middle" font-size="13" x="7.5" y="13.325">1</text></g></g><g id="ProcessOnG1013" transform="matrix(1.0,0.0,0.0,1.0,203.0,153.0)" opacity="1.0"><path id="ProcessOnPath1014" d="M0.0 0.0L33.0 0.0L33.0 67.0L0.0 67.0Z" stroke="#323232" stroke-width="2.0" stroke-dasharray="none" opacity="1.0" fill="#ff9933"/><g id="ProcessOnG1015" transform="matrix(1.0,0.0,0.0,1.0,10.0,25.375)"><text id="ProcessOnText1016" fill="#000000" font-weight="normal" font-style="normal" text-decoration="blink" font-family="微软雅黑" text-anchor="middle" font-size="13" x="6.5" y="13.325">2</text></g></g><g id="ProcessOnG1017" transform="matrix(1.0,0.0,0.0,1.0,258.0,153.0)" opacity="1.0"><path id="ProcessOnPath1018" d="M0.0 0.0L35.0 0.0L35.0 33.0L0.0 33.0Z" stroke="#323232" stroke-width="2.0" stroke-dasharray="none" opacity="1.0" fill="#ffffff"/><g id="ProcessOnG1019" transform="matrix(1.0,0.0,0.0,1.0,10.0,8.375)"><text id="ProcessOnText1020" fill="#000000" font-weight="normal" font-style="normal" text-decoration="blink" font-family="微软雅黑" text-anchor="middle" font-size="13" x="7.5" y="13.325">3</text></g></g><g id="ProcessOnG1021" transform="matrix(1.0,0.0,0.0,1.0,203.0,229.0)" opacity="1.0"><path id="ProcessOnPath1022" d="M0.0 0.0L33.0 0.0L33.0 67.0L0.0 67.0Z" stroke="#323232" stroke-width="2.0" stroke-dasharray="none" opacity="1.0" fill="#ff9933"/><g id="ProcessOnG1023" transform="matrix(1.0,0.0,0.0,1.0,10.0,25.375)"><text id="ProcessOnText1024" fill="#000000" font-weight="normal" font-style="normal" text-decoration="blink" font-family="微软雅黑" text-anchor="middle" font-size="13" x="6.5" y="13.325">4</text></g></g><g id="ProcessOnG1025" transform="matrix(1.0,0.0,0.0,1.0,258.0,229.0)" opacity="1.0"><path id="ProcessOnPath1026" d="M0.0 0.0L35.0 0.0L35.0 33.0L0.0 33.0Z" stroke="#323232" stroke-width="2.0" stroke-dasharray="none" opacity="1.0" fill="#ffffff"/><g id="ProcessOnG1027" transform="matrix(1.0,0.0,0.0,1.0,10.0,8.375)"><text id="ProcessOnText1028" fill="#000000" font-weight="normal" font-style="normal" text-decoration="blink" font-family="微软雅黑" text-anchor="middle" font-size="13" x="7.5" y="13.325">5</text></g></g><g id="ProcessOnG1029" transform="matrix(1.0,0.0,0.0,1.0,203.0,309.0)" opacity="1.0"><path id="ProcessOnPath1030" d="M0.0 0.0L33.0 0.0L33.0 67.0L0.0 67.0Z" stroke="#323232" stroke-width="2.0" stroke-dasharray="none" opacity="1.0" fill="#ff9933"/><g id="ProcessOnG1031" transform="matrix(1.0,0.0,0.0,1.0,10.0,25.375)"><text id="ProcessOnText1032" fill="#000000" font-weight="normal" font-style="normal" text-decoration="blink" font-family="微软雅黑" text-anchor="middle" font-size="13" x="6.5" y="13.325">6</text></g></g><g id="ProcessOnG1033" transform="matrix(1.0,0.0,0.0,1.0,258.0,309.0)" opacity="1.0"><path id="ProcessOnPath1034" d="M0.0 0.0L35.0 0.0L35.0 33.0L0.0 33.0Z" stroke="#323232" stroke-width="2.0" stroke-dasharray="none" opacity="1.0" fill="#ffffff"/><g id="ProcessOnG1035" transform="matrix(1.0,0.0,0.0,1.0,10.0,8.375)"><text id="ProcessOnText1036" fill="#000000" font-weight="normal" font-style="normal" text-decoration="blink" font-family="微软雅黑" text-anchor="middle" font-size="13" x="7.5" y="13.325">7</text></g></g><g id="ProcessOnG1037" transform="matrix(1.0,0.0,0.0,1.0,203.0,387.0)" opacity="1.0"><path id="ProcessOnPath1038" d="M0.0 0.0L33.0 0.0L33.0 67.0L0.0 67.0Z" stroke="#323232" stroke-width="2.0" stroke-dasharray="none" opacity="1.0" fill="#ff9933"/><g id="ProcessOnG1039" transform="matrix(1.0,0.0,0.0,1.0,10.0,25.375)"><text id="ProcessOnText1040" fill="#000000" font-weight="normal" font-style="normal" text-decoration="blink" font-family="微软雅黑" text-anchor="middle" font-size="13" x="6.5" y="13.325">8</text></g></g><g id="ProcessOnG1041" transform="matrix(1.0,0.0,0.0,1.0,258.0,387.0)" opacity="1.0"><path id="ProcessOnPath1042" d="M0.0 0.0L35.0 0.0L35.0 33.0L0.0 33.0Z" stroke="#323232" stroke-width="2.0" stroke-dasharray="none" opacity="1.0" fill="#ffffff"/><g id="ProcessOnG1043" transform="matrix(1.0,0.0,0.0,1.0,10.0,8.375)"><text id="ProcessOnText1044" fill="#000000" font-weight="normal" font-style="normal" text-decoration="blink" font-family="微软雅黑" text-anchor="middle" font-size="13" x="7.5" y="13.325">9</text></g></g><g id="ProcessOnG1045" transform="matrix(1.0,0.0,0.0,1.0,203.0,465.0)" opacity="1.0"><path id="ProcessOnPath1046" d="M0.0 0.0L33.0 0.0L33.0 67.0L0.0 67.0Z" stroke="#323232" stroke-width="2.0" stroke-dasharray="none" opacity="1.0" fill="#ff9933"/><g id="ProcessOnG1047" transform="matrix(1.0,0.0,0.0,1.0,10.0,17.25)"><text id="ProcessOnText1048" fill="#000000" font-weight="normal" font-style="normal" text-decoration="blink" font-family="微软雅黑" text-anchor="middle" font-size="13" x="6.5" y="13.325">1</text><text id="ProcessOnText1049" fill="#000000" font-weight="normal" font-style="normal" text-decoration="blink" font-family="微软雅黑" text-anchor="middle" font-size="13" x="6.5" y="29.575">0</text></g></g><g id="ProcessOnG1050" transform="matrix(1.0,0.0,0.0,1.0,258.0,465.0)" opacity="1.0"><path id="ProcessOnPath1051" d="M0.0 0.0L35.0 0.0L35.0 33.0L0.0 33.0Z" stroke="#323232" stroke-width="2.0" stroke-dasharray="none" opacity="1.0" fill="#ffffff"/><g id="ProcessOnG1052" transform="matrix(1.0,0.0,0.0,1.0,10.0,0.25)"><text id="ProcessOnText1053" fill="#000000" font-weight="normal" font-style="normal" text-decoration="blink" font-family="微软雅黑" text-anchor="middle" font-size="13" x="7.5" y="13.325">1</text><text id="ProcessOnText1054" fill="#000000" font-weight="normal" font-style="normal" text-decoration="blink" font-family="微软雅黑" text-anchor="middle" font-size="13" x="7.5" y="29.575">1</text></g></g><g id="ProcessOnG1055" transform="matrix(1.0,0.0,0.0,1.0,380.0,78.0)" opacity="1.0"><path id="ProcessOnPath1056" d="M0.0 0.0L33.0 0.0L33.0 67.0L0.0 67.0Z" stroke="#323232" stroke-width="2.0" stroke-dasharray="none" opacity="1.0" fill="#ff9933"/><g id="ProcessOnG1057" transform="matrix(1.0,0.0,0.0,1.0,10.0,25.375)"><text id="ProcessOnText1058" fill="#000000" font-weight="normal" font-style="normal" text-decoration="blink" font-family="微软雅黑" text-anchor="middle" font-size="13" x="6.5" y="13.325">0</text></g></g><g id="ProcessOnG1059" transform="matrix(1.0,0.0,0.0,1.0,435.0,78.0)" opacity="1.0"><path id="ProcessOnPath1060" d="M0.0 0.0L35.0 0.0L35.0 33.0L0.0 33.0Z" stroke="#323232" stroke-width="2.0" stroke-dasharray="none" opacity="1.0" fill="#ffffff"/><g id="ProcessOnG1061" transform="matrix(1.0,0.0,0.0,1.0,10.0,8.375)"><text id="ProcessOnText1062" fill="#000000" font-weight="normal" font-style="normal" text-decoration="blink" font-family="微软雅黑" text-anchor="middle" font-size="13" x="7.5" y="13.325">1</text></g></g><g id="ProcessOnG1063" transform="matrix(1.0,0.0,0.0,1.0,436.0,120.0)" opacity="1.0"><path id="ProcessOnPath1064" d="M0.0 0.0L33.0 0.0L33.0 67.0L0.0 67.0Z" stroke="#323232" stroke-width="2.0" stroke-dasharray="none" opacity="1.0" fill="#ff9933"/><g id="ProcessOnG1065" transform="matrix(1.0,0.0,0.0,1.0,10.0,25.375)"><text id="ProcessOnText1066" fill="#000000" font-weight="normal" font-style="normal" text-decoration="blink" font-family="微软雅黑" text-anchor="middle" font-size="13" x="6.5" y="13.325">2</text></g></g><g id="ProcessOnG1067" transform="matrix(1.0,0.0,0.0,1.0,379.0,154.0)" opacity="1.0"><path id="ProcessOnPath1068" d="M0.0 0.0L35.0 0.0L35.0 33.0L0.0 33.0Z" stroke="#323232" stroke-width="2.0" stroke-dasharray="none" opacity="1.0" fill="#ffffff"/><g id="ProcessOnG1069" transform="matrix(1.0,0.0,0.0,1.0,10.0,8.375)"><text id="ProcessOnText1070" fill="#000000" font-weight="normal" font-style="normal" text-decoration="blink" font-family="微软雅黑" text-anchor="middle" font-size="13" x="7.5" y="13.325">3</text></g></g><g id="ProcessOnG1071" transform="matrix(1.0,0.0,0.0,1.0,379.0,199.0)" opacity="1.0"><path id="ProcessOnPath1072" d="M0.0 0.0L33.0 0.0L33.0 67.0L0.0 67.0Z" stroke="#323232" stroke-width="2.0" stroke-dasharray="none" opacity="1.0" fill="#ff9933"/><g id="ProcessOnG1073" transform="matrix(1.0,0.0,0.0,1.0,10.0,25.375)"><text id="ProcessOnText1074" fill="#000000" font-weight="normal" font-style="normal" text-decoration="blink" font-family="微软雅黑" text-anchor="middle" font-size="13" x="6.5" y="13.325">4</text></g></g><g id="ProcessOnG1075" transform="matrix(1.0,0.0,0.0,1.0,434.0,199.0)" opacity="1.0"><path id="ProcessOnPath1076" d="M0.0 0.0L35.0 0.0L35.0 33.0L0.0 33.0Z" stroke="#323232" stroke-width="2.0" stroke-dasharray="none" opacity="1.0" fill="#ffffff"/><g id="ProcessOnG1077" transform="matrix(1.0,0.0,0.0,1.0,10.0,8.375)"><text id="ProcessOnText1078" fill="#000000" font-weight="normal" font-style="normal" text-decoration="blink" font-family="微软雅黑" text-anchor="middle" font-size="13" x="7.5" y="13.325">5</text></g></g><g id="ProcessOnG1079" transform="matrix(1.0,0.0,0.0,1.0,380.0,277.0)" opacity="1.0"><path id="ProcessOnPath1080" d="M0.0 0.0L33.0 0.0L33.0 67.0L0.0 67.0Z" stroke="#323232" stroke-width="2.0" stroke-dasharray="none" opacity="1.0" fill="#ff9933"/><g id="ProcessOnG1081" transform="matrix(1.0,0.0,0.0,1.0,10.0,25.375)"><text id="ProcessOnText1082" fill="#000000" font-weight="normal" font-style="normal" text-decoration="blink" font-family="微软雅黑" text-anchor="middle" font-size="13" x="6.5" y="13.325">6</text></g></g><g id="ProcessOnG1083" transform="matrix(1.0,0.0,0.0,1.0,435.0,277.0)" opacity="1.0"><path id="ProcessOnPath1084" d="M0.0 0.0L35.0 0.0L35.0 33.0L0.0 33.0Z" stroke="#323232" stroke-width="2.0" stroke-dasharray="none" opacity="1.0" fill="#ffffff"/><g id="ProcessOnG1085" transform="matrix(1.0,0.0,0.0,1.0,10.0,8.375)"><text id="ProcessOnText1086" fill="#000000" font-weight="normal" font-style="normal" text-decoration="blink" font-family="微软雅黑" text-anchor="middle" font-size="13" x="7.5" y="13.325">7</text></g></g><g id="ProcessOnG1087" transform="matrix(1.0,0.0,0.0,1.0,436.0,319.0)" opacity="1.0"><path id="ProcessOnPath1088" d="M0.0 0.0L33.0 0.0L33.0 67.0L0.0 67.0Z" stroke="#323232" stroke-width="2.0" stroke-dasharray="none" opacity="1.0" fill="#ff9933"/><g id="ProcessOnG1089" transform="matrix(1.0,0.0,0.0,1.0,10.0,25.375)"><text id="ProcessOnText1090" fill="#000000" font-weight="normal" font-style="normal" text-decoration="blink" font-family="微软雅黑" text-anchor="middle" font-size="13" x="6.5" y="13.325">8</text></g></g><g id="ProcessOnG1091" transform="matrix(1.0,0.0,0.0,1.0,379.0,353.0)" opacity="1.0"><path id="ProcessOnPath1092" d="M0.0 0.0L35.0 0.0L35.0 33.0L0.0 33.0Z" stroke="#323232" stroke-width="2.0" stroke-dasharray="none" opacity="1.0" fill="#ffffff"/><g id="ProcessOnG1093" transform="matrix(1.0,0.0,0.0,1.0,10.0,8.375)"><text id="ProcessOnText1094" fill="#000000" font-weight="normal" font-style="normal" text-decoration="blink" font-family="微软雅黑" text-anchor="middle" font-size="13" x="7.5" y="13.325">9</text></g></g><g id="ProcessOnG1095" transform="matrix(1.0,0.0,0.0,1.0,379.0,398.0)" opacity="1.0"><path id="ProcessOnPath1096" d="M0.0 0.0L33.0 0.0L33.0 67.0L0.0 67.0Z" stroke="#323232" stroke-width="2.0" stroke-dasharray="none" opacity="1.0" fill="#ff9933"/><g id="ProcessOnG1097" transform="matrix(1.0,0.0,0.0,1.0,10.0,17.25)"><text id="ProcessOnText1098" fill="#000000" font-weight="normal" font-style="normal" text-decoration="blink" font-family="微软雅黑" text-anchor="middle" font-size="13" x="6.5" y="13.325">1</text><text id="ProcessOnText1099" fill="#000000" font-weight="normal" font-style="normal" text-decoration="blink" font-family="微软雅黑" text-anchor="middle" font-size="13" x="6.5" y="29.575">0</text></g></g><g id="ProcessOnG1100" transform="matrix(1.0,0.0,0.0,1.0,434.0,398.0)" opacity="1.0"><path id="ProcessOnPath1101" d="M0.0 0.0L35.0 0.0L35.0 33.0L0.0 33.0Z" stroke="#323232" stroke-width="2.0" stroke-dasharray="none" opacity="1.0" fill="#ffffff"/><g id="ProcessOnG1102" transform="matrix(1.0,0.0,0.0,1.0,10.0,0.25)"><text id="ProcessOnText1103" fill="#000000" font-weight="normal" font-style="normal" text-decoration="blink" font-family="微软雅黑" text-anchor="middle" font-size="13" x="7.5" y="13.325">1</text><text id="ProcessOnText1104" fill="#000000" font-weight="normal" font-style="normal" text-decoration="blink" font-family="微软雅黑" text-anchor="middle" font-size="13" x="7.5" y="29.575">1</text></g></g><g id="ProcessOnG1105" transform="matrix(1.0,0.0,0.0,1.0,176.0,580.0)" opacity="1.0"><path id="ProcessOnPath1106" d="M0.0 0.0L145.0 0.0L145.0 27.0L0.0 27.0Z" stroke="#323232" stroke-width="0.0" stroke-dasharray="none" opacity="1.0" fill="none"/><g id="ProcessOnG1107" transform="matrix(1.0,0.0,0.0,1.0,0.0,5.375)"><text id="ProcessOnText1108" fill="#000000" font-weight="normal" font-style="normal" text-decoration="blink" font-family="微软雅黑" text-anchor="middle" font-size="13" x="72.5" y="13.325">task per thread = 1</text></g></g><g id="ProcessOnG1109" transform="matrix(1.0,0.0,0.0,1.0,188.0,541.0)" opacity="1.0"><path id="ProcessOnPath1110" d="M0.0 0.0L62.0 0.0L62.0 28.0L0.0 28.0Z" stroke="#323232" stroke-width="0.0" stroke-dasharray="none" opacity="1.0" fill="none"/><g id="ProcessOnG1111" transform="matrix(1.0,0.0,0.0,1.0,0.0,5.875)"><text id="ProcessOnText1112" fill="#000000" font-weight="normal" font-style="normal" text-decoration="blink" font-family="微软雅黑" text-anchor="middle" font-size="13" x="31.0" y="13.325">线程0</text></g></g><g id="ProcessOnG1113" transform="matrix(1.0,0.0,0.0,1.0,250.0,541.0)" opacity="1.0"><path id="ProcessOnPath1114" d="M0.0 0.0L62.0 0.0L62.0 28.0L0.0 28.0Z" stroke="#323232" stroke-width="0.0" stroke-dasharray="none" opacity="1.0" fill="none"/><g id="ProcessOnG1115" transform="matrix(1.0,0.0,0.0,1.0,0.0,5.875)"><text id="ProcessOnText1116" fill="#000000" font-weight="normal" font-style="normal" text-decoration="blink" font-family="微软雅黑" text-anchor="middle" font-size="13" x="31.0" y="13.325">线程1</text></g></g><g id="ProcessOnG1117" transform="matrix(1.0,0.0,0.0,1.0,366.0,541.0)" opacity="1.0"><path id="ProcessOnPath1118" d="M0.0 0.0L62.0 0.0L62.0 28.0L0.0 28.0Z" stroke="#323232" stroke-width="0.0" stroke-dasharray="none" opacity="1.0" fill="none"/><g id="ProcessOnG1119" transform="matrix(1.0,0.0,0.0,1.0,0.0,5.875)"><text id="ProcessOnText1120" fill="#000000" font-weight="normal" font-style="normal" text-decoration="blink" font-family="微软雅黑" text-anchor="middle" font-size="13" x="31.0" y="13.325">线程0</text></g></g><g id="ProcessOnG1121" transform="matrix(1.0,0.0,0.0,1.0,428.0,541.0)" opacity="1.0"><path id="ProcessOnPath1122" d="M0.0 0.0L62.0 0.0L62.0 28.0L0.0 28.0Z" stroke="#323232" stroke-width="0.0" stroke-dasharray="none" opacity="1.0" fill="none"/><g id="ProcessOnG1123" transform="matrix(1.0,0.0,0.0,1.0,0.0,5.875)"><text id="ProcessOnText1124" fill="#000000" font-weight="normal" font-style="normal" text-decoration="blink" font-family="微软雅黑" text-anchor="middle" font-size="13" x="31.0" y="13.325">线程1</text></g></g><g id="ProcessOnG1125" transform="matrix(1.0,0.0,0.0,1.0,357.0,580.0)" opacity="1.0"><path id="ProcessOnPath1126" d="M0.0 0.0L145.0 0.0L145.0 27.0L0.0 27.0Z" stroke="#323232" stroke-width="0.0" stroke-dasharray="none" opacity="1.0" fill="none"/><g id="ProcessOnG1127" transform="matrix(1.0,0.0,0.0,1.0,0.0,5.375)"><text id="ProcessOnText1128" fill="#000000" font-weight="normal" font-style="normal" text-decoration="blink" font-family="微软雅黑" text-anchor="middle" font-size="13" x="72.5" y="13.325">task per thread = 3</text></g></g></g></g></svg>